<?xml version="1.0" encoding="UTF-8" standalone="no"?>
<!-- Created with Inkscape (http://www.inkscape.org/) -->

<svg
   xmlns:dc="http://purl.org/dc/elements/1.1/"
   xmlns:cc="http://creativecommons.org/ns#"
   xmlns:rdf="http://www.w3.org/1999/02/22-rdf-syntax-ns#"
   xmlns:svg="http://www.w3.org/2000/svg"
   xmlns="http://www.w3.org/2000/svg"
   xmlns:sodipodi="http://sodipodi.sourceforge.net/DTD/sodipodi-0.dtd"
   xmlns:inkscape="http://www.inkscape.org/namespaces/inkscape"
   width="48px"
   height="48px"
   viewBox="0 0 48 48"
   version="1.1"
   id="SVGRoot"
   inkscape:version="0.92.4 (5da689c313, 2019-01-14)"
   sodipodi:docname="korso-harmaa.svg"
   inkscape:export-filename="/home/naakka/korsotin_firefox/icons/korso-harmaa-64.png"
   inkscape:export-xdpi="128"
   inkscape:export-ydpi="128">
  <defs
     id="defs71" />
  <sodipodi:namedview
     id="base"
     pagecolor="#ffffff"
     bordercolor="#666666"
     borderopacity="1.0"
     inkscape:pageopacity="0.0"
     inkscape:pageshadow="2"
     inkscape:zoom="16.000001"
     inkscape:cx="16.760716"
     inkscape:cy="21.364825"
     inkscape:document-units="px"
     inkscape:current-layer="layer1"
     showgrid="false"
     inkscape:window-width="1920"
     inkscape:window-height="1016"
     inkscape:window-x="0"
     inkscape:window-y="27"
     inkscape:window-maximized="1"
     inkscape:grid-bbox="true" />
  <metadata
     id="metadata74">
    <rdf:RDF>
      <cc:Work
         rdf:about="">
        <dc:format>image/svg+xml</dc:format>
        <dc:type
           rdf:resource="http://purl.org/dc/dcmitype/StillImage" />
        <dc:title />
      </cc:Work>
    </rdf:RDF>
  </metadata>
  <g
     inkscape:label="Taso 1"
     inkscape:groupmode="layer"
     id="layer1">
    <path
       style="fill:#000000"
       id="path3920"
       d="m 28.459205,37.054915 c -0.217966,-0.0076 -0.436154,-0.004 -0.654198,-0.0022 -0.147291,0.03039 -0.298184,0.0693 -0.434257,0.134563 -0.131176,0.05466 -0.261084,0.11123 -0.395635,0.158059 -0.127898,0.03826 -0.27534,0.04873 -0.390545,0.118206 -0.106488,0.04697 -0.225734,0.07074 -0.323371,0.135922 0.622078,-0.355599 2.459516,-1.468604 1.866234,-1.066799 -0.387962,0.26275 -1.411001,1.118931 -2.228684,1.18344 -0.134965,0.0069 -0.270187,0.0048 -0.405269,0.004 -0.132937,-9.9e-4 -0.265877,-0.0014 -0.398817,-0.0016 -0.13257,-1.8e-4 -0.26514,-1.71e-4 -0.39771,-1.72e-4 -0.133008,-0.01032 -0.256472,0.03705 -0.387797,0.05321 -0.06652,0.01474 -0.137761,3.26e-4 -0.20426,0.01181 -0.06352,0.01097 -0.126412,0.0357 -0.19093,0.04699 -0.08789,0.02544 -0.185079,0.0018 -0.27308,0.01982 -0.03634,0.0074 -0.0688,0.02793 -0.1041,0.03933 -0.124384,-0.02648 -0.25538,-0.01239 -0.374954,-0.0554 -0.09823,-0.03579 -0.20253,-0.04648 -0.306316,-0.04919 -0.01691,-1.8e-4 -0.03411,0.0026 -0.05072,-5.41e-4 -0.04208,-0.008 -0.08145,-0.02702 -0.123309,-0.03606 -0.06648,-0.01437 -0.124921,-0.02003 -0.189761,-0.04269 -0.08637,-0.03158 -0.178934,-0.02943 -0.263643,-0.0658 -0.0947,-0.04789 -0.04791,-0.02625 -0.140127,-0.06546 -0.134022,-0.04336 -0.259776,-0.107661 -0.37796,-0.183922 -0.118291,-0.06764 -0.241734,-0.125606 -0.360187,-0.192989 -0.07888,-0.04658 -0.171395,-0.05038 -0.253447,-0.0883 -0.0923,-0.04896 -0.04651,-0.02692 -0.137096,-0.06668 -0.133389,-0.07395 -0.255612,-0.16656 -0.398995,-0.220845 -0.131517,-0.03924 -0.260525,-0.08526 -0.391356,-0.127132 -0.120112,-0.0672 -0.251751,-0.09112 -0.387022,-0.101212 -0.129994,0.0011 -0.239831,-0.07566 -0.361595,-0.110182 -0.127262,-0.0098 -0.246719,-0.04821 -0.371603,-0.07131 -0.151138,-0.01215 -0.279016,-0.092 -0.411671,-0.156742 -0.122251,-0.08471 -0.241863,-0.156574 -0.388976,-0.184954 -0.09662,-0.06293 -0.229062,-0.03293 -0.324927,-0.09244 -0.02574,-0.01598 -0.04685,-0.03844 -0.07027,-0.05766 -0.124859,-0.09607 -0.176852,-0.235841 -0.205348,-0.385204 -0.01891,-0.134391 -0.01714,-0.270502 -0.01687,-0.405886 0.0023,-0.138518 -0.0047,-0.277301 0.01277,-0.414964 0.01536,-0.136141 0.06217,-0.265004 0.09129,-0.398211 0.01926,-0.139354 0.03321,-0.277756 0.07494,-0.412707 0.03922,-0.128554 0.07836,-0.257327 0.113266,-0.387173 0.02372,-0.148077 0.09156,-0.281705 0.155796,-0.415291 0.04142,-0.109648 0.08334,-0.220315 0.110783,-0.334417 0.04835,-0.104397 0.07887,-0.214638 0.115399,-0.323411 0.03216,-0.13036 0.06038,-0.261708 0.08976,-0.39289 0.05159,-0.164973 0.106443,-0.327939 0.136938,-0.498394 0.02243,-0.150654 0.02954,-0.303147 0.02907,-0.455312 -0.01594,-0.06066 0.01951,-0.08404 0.0054,-0.03643 -0.0093,0.03115 -0.07106,0.05058 -0.09467,0.0584 -0.153224,0.06585 -0.326964,0.07974 -0.4921,0.09457 -0.146412,0.05218 -0.299564,0.06369 -0.453277,0.07061 -0.167183,0.0032 -0.334384,0.0045 -0.501594,0.0049 -0.148121,7.22e-4 -0.296229,-9.39e-4 -0.444348,-10e-4 -0.09706,-0.0092 -0.197864,0.01234 -0.294599,5.35e-4 -0.05021,-0.0061 -0.09859,-0.02276 -0.148088,-0.03318 -0.13509,-0.02723 -0.273035,-0.03023 -0.41029,-0.03313 -0.146267,-0.002 -0.292553,-9.34e-4 -0.438826,-3.71e-4 -0.147153,5.36e-4 -0.294297,-4.59e-4 -0.441452,-1.54e-4 -0.141197,-0.0351 -0.284967,-0.0535 -0.429954,-0.06181 -0.131083,-0.0054 -0.262318,-0.0046 -0.393482,-0.0043 -0.133656,-0.0081 -0.257524,0.0028 -0.377879,0.06344 -0.135731,0.04078 -0.266133,0.08717 -0.382473,0.169714 -0.129333,0.0778 -0.26749,0.139544 -0.396972,0.216891 -0.136778,0.06096 -0.262081,0.141678 -0.406498,0.184449 -0.126621,0.0691 -0.268286,0.102869 -0.39761,0.16423 -0.06349,0.03688 -0.141618,0.02944 -0.208649,0.05127 -0.01916,0.0062 -0.03475,0.02055 -0.05307,0.02896 -0.04682,0.0215 -0.06343,0.02268 -0.113399,0.03429 -0.105684,0.04851 0.637653,-0.547712 0.539623,-0.484067 4.167943,-2.393005 -0.358969,0.693876 -1.189671,1.181694 -0.613171,0.360078 1.457936,-1.188082 2.073672,-1.543756 0.02186,-0.01263 -0.044,0.0248 -0.06549,0.03806 -0.06896,0.04255 -0.0659,0.04288 -0.130044,0.09246 -0.130857,0.08894 -0.258449,0.182626 -0.382674,0.28043 -0.09106,0.09076 -0.197055,0.164605 -0.290711,0.252212 -1.02053,0.04416 -1.747718,0.954504 -2.5096752,1.521276 -0.0018,-7.5e-5 -0.146756,-0.02647 -0.1523178,-0.02748 C 9.4101935,33.326837 9.2863587,33.198046 9.1467948,33.096989 9.0060681,32.979618 8.8462778,32.891698 8.6904383,32.797087 8.5329082,32.687642 8.3756322,32.577072 8.2234533,32.460144 8.1045206,32.399872 8.0204753,32.285737 7.899727,32.230727 7.7867708,32.150132 7.6992907,32.049021 7.6451383,31.921434 c -0.044713,-0.143327 -0.00256,-0.269693 0.064877,-0.396253 0.081545,-0.121801 0.1645276,-0.24244 0.2477197,-0.363146 0.083515,-0.136637 0.1562024,-0.278605 0.2477994,-0.410199 0.095273,-0.141478 0.2185577,-0.252998 0.3573785,-0.349657 0.6666345,-0.500527 0.1653149,-0.128136 2.0383451,-1.185011 0.03854,-0.02175 0.106471,-0.01747 0.147061,-0.03004 0.0386,-0.01195 0.07317,-0.03466 0.111311,-0.04801 0.114877,-0.03394 0.242809,-0.07637 0.336047,-0.153788 0.454503,-0.02321 -1.2377204,0.714608 -1.8559816,1.072946 -0.01701,0.0099 0.03599,-0.01634 0.052188,-0.02748 0.078571,-0.05405 0.1386351,-0.141986 0.1977701,-0.215085 0.1132803,-0.114935 0.2378914,-0.215851 0.3458434,-0.336052 0.1105141,-0.112673 0.1868901,-0.251229 0.2733201,-0.381772 0.0918,-0.140418 0.217401,-0.253401 0.311046,-0.39199 0.08021,-0.127903 0.15188,-0.261008 0.230404,-0.390111 0.07017,-0.104667 0.09033,-0.228714 0.131966,-0.345154 0.04314,-0.114008 0.0424,-0.236807 0.06334,-0.355312 0.02285,-0.113711 0.0577,-0.225259 0.01871,-0.337857 -0.07437,-0.139158 -0.189781,-0.250802 -0.298698,-0.362986 C 10.551744,26.779515 10.43838,26.644383 10.319094,26.514165 10.192906,26.382046 10.064602,26.253021 9.9480756,26.112203 9.8381954,25.975671 9.7190157,25.847185 9.5980064,25.720567 9.486445,25.597669 9.3740746,25.475484 9.2661458,25.349283 9.180286,25.222038 9.0869225,25.101082 8.9858632,24.985624 8.8650706,24.851533 8.7374799,24.723799 8.6102393,24.595883 8.4776936,24.4631 8.344814,24.330651 8.2120467,24.198089 8.0792873,24.065521 7.9466059,23.932875 7.8139301,23.800223 7.689212,23.678427 7.5494923,23.573196 7.419235,23.457121 7.261362,23.281496 7.105352,23.104382 6.9427033,22.933097 6.777521,22.748767 6.6075547,22.569086 6.4419416,22.384956 6.2860027,22.220932 6.1001964,22.090915 5.9296901,21.943234 5.7395294,21.768712 5.5839874,21.563406 5.4303815,21.357376 5.3076196,21.189863 5.1694428,21.034891 5.0270471,20.884058 4.9023699,20.755634 4.7936594,20.613005 4.6752977,20.478814 4.554469,20.344288 4.4272113,20.215755 4.2999889,20.087326 4.170194,19.964375 4.0639903,19.820304 3.9724366,19.667438 3.8971311,19.527218 3.7955266,19.405271 3.6900239,19.287214 3.5790155,19.152858 3.4448724,19.044544 3.3116,18.933932 3.1691205,18.823593 3.0496265,18.690964 2.9330934,18.554647 2.8229782,18.431043 2.7323109,18.290875 2.6497019,18.147764 2.5729407,18.007245 2.4710959,17.88318 2.3773623,17.753989 2.2890634,17.621207 2.2061053,17.484873 2.1155561,17.353617 2.0089717,17.213746 1.9376742,17.050494 1.8569237,16.894901 1.7882695,16.756659 1.7338675,16.61259 1.6796297,16.468319 c -0.062696,-0.13443 -0.13089,-0.263818 -0.1743581,-0.406331 -0.03863,-0.132369 -0.035948,-0.271003 -0.058026,-0.406002 -0.03206,-0.148417 -0.049701,-0.294372 -0.016577,-0.443657 0.03451,-0.168477 0.131425,-0.294643 0.2499527,-0.412848 0.6196706,-0.606116 1.1857068,-0.754985 2.1474543,-1.308621 0.021411,-0.01232 0.045402,-0.01949 0.068102,-0.02924 0.021713,-0.01281 0.043426,-0.02561 0.065138,-0.03842 0.6741416,-0.318367 1.5692584,-0.893099 -1.7038069,0.98926 -0.023544,0.01354 0.047381,-0.02658 0.070708,-0.04049 0.076673,-0.04573 0.052712,-0.03 0.1190367,-0.08822 0.6727956,-0.559415 1.6476885,-1.050953 2.4025163,-1.491044 0.7276624,-0.299188 -0.1558522,0.556067 -1.933025,1.190962 -0.018975,0.0109 0.039331,-0.01931 0.058139,-0.0305 0.061735,-0.03672 0.1138433,-0.08643 0.1709891,-0.129601 0.6961393,-0.533453 1.4212014,-1.195809 2.3047199,-1.281422 -0.048405,0.07016 0.2646904,-0.146073 0.1804241,-0.09809 -0.6157782,0.350643 -1.2285675,0.70651 -1.8432133,1.059134 -0.048021,0.02755 0.093843,-0.05889 0.1388863,-0.09108 0.6264699,-0.535734 1.2812203,-0.771057 2.1025244,-1.240805 0.065943,-0.03772 0.1355556,-0.05643 0.2087141,-0.07381 0.1557687,-0.06217 0.3131365,-0.120772 0.4692765,-0.182679 0.1093968,-0.0749 0.2412773,-0.09469 0.3619338,-0.139936 0.045076,-0.0169 0.086365,-0.04278 0.1310377,-0.06073 0.1335364,-0.04426 0.2779546,-0.01288 0.4068302,0.03539 0.1513312,0.07789 0.280102,0.191547 0.4154545,0.293524 0.1377405,0.07873 0.2471467,0.19686 0.3579798,0.308458 0.098158,0.110166 0.1645731,0.243371 0.2660435,0.350839 0.076479,0.06941 0.1715396,0.101954 0.2566838,0.158932 0.087373,0.08695 0.1958923,0.14489 0.308265,0.192707 0.098965,0.07202 0.2133071,0.07617 0.3305088,0.08225 0.023795,7.59e-4 0.047672,0.0044 0.071384,0.0023 0.051667,-0.0046 0.1017242,-0.02062 0.1530134,-0.0284 0.080404,-0.01219 0.1609346,-0.02057 0.2419037,-0.02779 0.173567,-0.01217 0.281728,-0.03043 0.445811,0.04007 0.160371,0.08817 0.299041,0.210955 0.421601,0.345743 0.119549,0.147872 0.22677,0.30477 0.348603,0.451124 0.124944,0.112819 0.244243,0.234081 0.379459,0.334665 0.117698,0.09694 0.244924,0.164444 0.393963,0.194017 0.186816,0.06196 0.364343,0.150771 0.537944,0.242792 0.04247,0.01476 -0.03875,0.085 0,0 0.0085,-0.01865 0.275894,-0.02734 0.258104,-0.01722 -0.635812,0.360847 -1.253828,0.752189 -1.880742,1.128284 0.0082,-0.0034 0.01927,-0.0031 0.02452,-0.01027 0.03304,-0.04483 0.01155,-0.221702 0.0096,-0.277475 0.0039,-0.12895 -0.01321,-0.25199 -0.0513,-0.374731 -0.03754,-0.136162 -0.08141,-0.270624 -0.114417,-0.407998 -0.03064,-0.136888 -0.03758,-0.277162 -0.04169,-0.416881 -0.0089,-0.13415 0.0033,-0.266344 0.02808,-0.398027 0.02711,-0.124279 0.03252,-0.2514 0.03767,-0.37803 2.34e-4,-0.174312 -0.0054,-0.345662 0.03949,-0.515198 0.06186,-0.175666 0.187607,-0.313766 0.311897,-0.447967 0.570888,-0.68139 1.418218,-1.045538 2.247146,-1.380593 0.06911,-0.0118 0.125214,-0.05142 0.191943,-0.07106 0.02267,-0.0067 0.04707,-0.0077 0.0689,-0.01672 0.03755,-0.01555 0.07029,-0.04124 0.107615,-0.05735 0.109005,-0.07114 0.237878,-0.09704 0.351851,-0.160375 0.134841,-0.05466 0.256464,-0.133155 0.396831,-0.174583 0.09027,-0.03069 0.17167,-0.08929 0.263524,-0.115333 0.03402,-0.0096 0.127322,-0.02279 0.161692,-0.02805 0.175012,-0.06444 0.352958,-0.110265 0.538174,-0.136262 0.193652,0.0027 0.335075,0.120648 0.456693,0.259131 0.09346,0.123202 0.136045,0.273607 0.205142,0.409963 0.08699,0.146396 0.163377,0.299345 0.238338,0.452276 0.06658,0.147088 0.169404,0.27073 0.275802,0.390237 0.124231,0.128341 0.242065,0.264822 0.38061,0.378056 0.09266,0.07951 0.20602,0.146314 0.329644,0.15879 0.08565,0.02553 0.131515,0.105447 0.196727,0.158848 0.03352,0.02745 0.07321,0.04638 0.109113,0.07063 0.14196,0.07781 0.274181,0.168618 0.42358,0.232535 0.135943,0.05276 0.280963,0.06008 0.424937,0.06278 0.1316,0.03904 0.267544,0.05353 0.404025,0.06042 0.16642,0.01109 0.304648,-0.09975 0.446332,-0.170585 0.721739,-0.3996 1.805734,-1.03404 -1.468158,0.853614 0.726805,-0.478693 1.440147,-1.010487 2.271949,-1.249309 0.733299,-0.336737 1.69726,-0.94668 -1.543393,0.910087 0.147232,-0.06375 0.250065,-0.18214 0.357771,-0.29589 0.07228,-0.09506 0.148924,-0.192519 0.194391,-0.304069 0.02483,-0.135001 0.0821,-0.256696 0.158484,-0.369595 0.107047,-0.130647 0.217139,-0.258341 0.32379,-0.389474 0.109141,-0.131358 0.208055,-0.270418 0.318554,-0.400844 0.105872,-0.126139 0.224554,-0.239524 0.341337,-0.355143 0.66061,-0.463763 1.443611,-0.83927 2.103145,-1.21544 0.08047,-0.0459 0.139872,-0.06899 0.232142,-0.07646 0.193645,0.02685 0.358917,0.137754 0.51953,0.242083 0.143651,0.07743 0.282163,0.155209 0.403,0.265642 0.131305,0.09448 0.249119,0.201525 0.345494,0.331406 0.127353,0.193361 0.235813,0.397741 0.366027,0.589191 0.127434,0.181394 0.278015,0.344304 0.431445,0.503631 0.125687,0.133001 0.255466,0.260034 0.397904,0.374732 0.132019,0.105781 0.256854,0.220722 0.369906,0.346457 0.09304,0.11706 0.137996,0.252864 0.131603,0.401224 -0.0098,0.134364 -0.03846,0.264239 -0.0795,0.392238 -0.02784,0.0938 -0.100427,0.144831 -0.162659,0.211515 -0.1481,0.158695 0.06535,-0.05007 -0.07322,0.08309 -0.08995,0.08351 -0.133478,0.183552 -0.177613,0.294736 -0.04042,0.124923 -0.0863,0.248338 -0.115572,0.376556 -0.01375,0.105768 -0.05154,0.206078 -0.07501,0.309894 -0.02148,0.09916 0.01449,0.202542 0.06152,0.28886 0.08964,0.136275 0.199642,0.257129 0.332915,0.351064 0.168242,0.109773 0.333501,0.222441 0.489839,0.348813 0.136399,0.126419 0.280617,0.242442 0.424203,0.360361 0.107629,0.08684 0.233829,0.106884 0.36728,0.113352 0.12916,0.0024 0.258353,-4.6e-4 0.387514,-0.0018 0.132588,-0.0013 0.265184,-0.0015 0.397777,-0.0017 0.12819,0.0031 0.262133,-0.01929 0.380058,-0.07124 0.0217,-0.0068 0.04415,-0.01164 0.0651,-0.02052 0.130914,-0.05548 -0.01272,-0.01234 0.126437,-0.05812 0.06877,-0.02262 0.135144,-0.03045 0.20224,-0.05855 0.06338,-0.0335 0.140115,-0.02432 0.206117,-0.04493 0.01897,-0.0059 0.03444,-0.01997 0.05254,-0.02818 0.04676,-0.02119 0.06261,-0.02225 0.112459,-0.03382 0.05063,-0.04046 0.115369,-0.04133 0.17338,-0.06141 0.06495,-0.02248 0.120662,-0.04849 0.188912,-0.06402 0.150199,-0.03355 0.299312,0.01258 0.449839,0.02777 0.154276,0.03159 0.267858,-0.02083 0.408268,-0.06942 0.02285,-0.0058 0.04637,-0.0094 0.06853,-0.01742 0.02156,-0.0078 0.04077,-0.02113 0.06197,-0.02987 0.08851,-0.03652 0.181961,-0.04967 0.276336,-0.06003 0.136139,-0.01075 0.272851,-0.0091 0.409298,-0.0086 0.132853,7.4e-4 0.265708,0.0012 0.398563,0.0015 0.08717,0.009 0.178272,-0.01143 0.265066,2.06e-4 0.04857,0.0065 0.09518,0.02341 0.143059,0.03384 0.158287,0.02394 0.299358,0.102904 0.439053,0.176905 0.174979,0.09314 0.358799,0.147419 0.553961,0.175753 0.103342,0.02184 0.21101,0.0033 0.314718,0.01504 0.05567,0.0063 0.109944,0.02173 0.16517,0.03119 0.153399,0.01906 0.308559,0.04816 0.453653,0.102614 0.163473,0.06618 0.273069,0.200921 0.399506,0.315693 0.104337,0.115369 0.205521,0.233425 0.311321,0.347504 0.122818,0.13408 0.257053,0.257264 0.376223,0.394587 0.11028,0.127754 0.183188,0.264186 0.225974,0.427025 0.03708,0.153845 0.02054,0.310933 -0.01681,0.462756 -0.0362,0.152501 -0.114597,0.291386 -0.207472,0.416288 -0.02806,0.01872 -0.03075,0.06001 -0.05589,0.08115 -0.01949,0.01638 -0.06816,-0.01323 -0.01731,0.03132 0.09214,0.04246 0.198318,0.039 0.297783,0.04105 0.06397,0.008 0.131215,-0.0091 0.194916,-4.23e-4 0.06067,0.0083 0.122814,0.03343 0.183455,0.04541 0.140378,0.07246 0.28376,0.137726 0.42523,0.207841 0.163397,0.06095 0.306324,0.129954 0.479136,0.16381 0.268978,0.02673 0.507718,0.04993 0.768098,0.128241 0.223781,0.08698 0.456695,0.14507 0.694758,0.173895 0.151083,0.01408 0.30305,0.01105 0.454595,0.01048 0.134728,0.02886 0.27018,0.05223 0.407793,0.06001 0.07911,0.01167 0.162345,-0.0077 0.241114,0.0036 0.04716,0.0068 0.09232,0.02376 0.13884,0.0341 0.144947,0.02684 0.281439,0.09027 0.415752,0.150054 0.100973,0.04877 0.213852,0.04923 0.32126,0.07046 0.05583,0.01104 0.110162,0.0287 0.165604,0.04156 0.153792,0.01078 0.292126,0.07576 0.437124,0.119693 0.211853,0.04471 0.430023,0.0466 0.645667,0.05144 0.147137,0.01091 0.296341,-0.0096 0.443308,4.1e-4 0.06839,0.0046 0.135767,0.01904 0.203681,0.02834 0.192224,0.02548 0.386143,0.03166 0.579781,0.03509 0.161045,0.0018 0.3221,2.36e-4 0.483145,-6.07e-4 0.167584,0.01341 0.286782,-0.0092 0.436584,-0.0849 0.171883,-0.06606 0.352643,-0.09693 0.535317,-0.111339 0.138264,-0.01878 0.283759,0.01741 0.417614,-0.0236 0.130757,-0.03446 0.266238,-0.04073 0.40069,-0.04509 0.136179,-0.0027 0.272414,-0.0027 0.408607,-0.0011 0.165751,-0.0406 0.291175,-0.07405 0.455001,-0.0098 0.150027,0.07382 0.249007,0.173188 0.317031,0.325373 0.04878,0.133242 0.05285,0.275518 0.05577,0.415697 0.0011,0.133505 -3.29e-4,0.267016 -10e-4,0.40052 0.0081,0.138604 -0.02269,0.273801 -0.04288,0.409902 -0.01694,0.136375 -0.04952,0.269913 -0.09426,0.399585 -0.05391,0.118542 -0.119847,0.229733 -0.159203,0.354243 -0.04822,0.144302 -0.101675,0.286205 -0.174805,0.41983 -0.09456,0.140973 -0.193719,0.279306 -0.300214,0.411637 -0.118233,0.14215 -0.247957,0.274104 -0.377551,0.405779 -0.13209,0.133304 -0.265102,0.265688 -0.397934,0.398251 -0.1201,0.126135 -0.249106,0.243817 -0.389349,0.347189 -0.139238,0.0931 -0.265132,0.203242 -0.399698,0.302584 -0.123644,0.104661 -0.25979,0.196234 -0.378861,0.305853 -0.107362,0.103685 -0.236376,0.178837 -0.35188,0.272369 -0.140964,0.09277 -0.273391,0.196312 -0.400209,0.307426 -0.12649,0.119183 -0.266406,0.222792 -0.39772,0.336617 -0.121145,0.115251 -0.248932,0.22307 -0.368725,0.339649 -0.108896,0.109412 -0.205844,0.232634 -0.297335,0.357064 -0.09291,0.114706 -0.16947,0.238433 -0.23524,0.370284 -0.05386,0.114344 -0.06544,0.239511 -0.07242,0.363879 -0.0057,0.135748 -0.03693,0.268512 -0.05254,0.403323 -0.01674,0.118657 -0.01169,0.235591 0.01746,0.351664 0.02186,0.09427 0.08566,0.155146 0.152604,0.219291 0.09854,0.06673 0.207373,0.112065 0.324371,0.133706 0.129862,0.02094 0.261451,-2.64e-4 0.388875,0.03187 0.138406,0.01623 0.26855,0.06107 0.40426,0.08932 0.1329,0.02283 0.268186,0.02247 0.402589,0.02395 0.147069,0.01305 0.285647,-0.03539 0.430388,-0.05375 0.142421,-0.01581 0.285794,-0.01395 0.428822,-0.01405 0.147568,-2.8e-4 0.295137,-3.27e-4 0.442706,-3.51e-4 0.08878,0.009 0.181547,-0.01178 0.269966,-1.5e-5 0.04865,0.0065 0.09534,0.02337 0.143288,0.03382 0.133337,0.04895 0.265123,0.09064 0.387662,0.163881 0.09703,0.05687 0.205762,0.08304 0.305818,0.135152 0.115059,0.03625 0.215447,0.100079 0.335058,0.121899 0.09446,0.05996 0.19954,0.06966 0.30812,0.07474 0.125144,0.0036 0.250366,0.0024 0.375545,0.0019 0.173454,0.02704 0.277924,0.150827 0.381204,0.279916 0.09902,0.128617 0.144839,0.280243 0.170912,0.437838 0.02025,0.142285 0.0074,0.288777 -0.03199,0.426668 -0.03978,0.101166 -0.05791,0.207342 -0.09489,0.30932 -0.03184,0.11853 -0.05821,0.238658 -0.08559,0.358514 -0.02445,0.128831 -0.06655,0.251554 -0.08572,0.381577 -6.23e-4,0.17837 -0.06757,0.336319 -0.141413,0.495165 -0.06812,0.158014 -0.140186,0.314838 -0.176495,0.483787 -0.0012,0.126344 -0.0033,0.252226 -0.02896,0.376453 -0.03079,0.144054 -0.102467,0.275404 -0.165867,0.407397 -0.05426,0.116447 -0.08006,0.241791 -0.135603,0.357898 -0.05994,0.121288 -0.111559,0.24851 -0.18148,0.364438 -0.06081,0.116268 -0.145298,0.220597 -0.229962,0.32079 -0.118062,0.134136 -0.244361,0.260698 -0.370126,0.387538 -0.101361,0.115716 -0.217943,0.213268 -0.334136,0.31304 -0.126487,0.09342 -0.259079,0.177368 -0.388813,0.266051 -0.718453,0.521442 -1.459564,1.077667 -2.30676,1.347988 -0.06185,0.04316 -0.136896,0.0499 -0.205781,0.07336 -0.06895,0.02348 -0.129483,0.05008 -0.201457,0.06639 -0.145846,0.06112 -0.300476,0.09879 -0.450658,0.149476 -0.167665,0.06295 -0.338208,0.10458 -0.5164,0.12657 -0.14755,0.01487 -0.296018,0.01387 -0.444125,0.01347 -0.135474,-9.62e-4 -0.270956,-6.99e-4 -0.406425,-0.0023 -0.149479,-8.89e-4 -0.298961,-2.7e-4 -0.448441,3.7e-5 -0.08948,0.01024 -0.183886,-0.01281 -0.272917,3.5e-4 -0.04181,0.0062 -0.08114,0.02382 -0.122269,0.03351 -0.133381,0.02675 -0.26972,0.03028 -0.405272,0.03288 -0.13357,0.0015 -0.267154,7.98e-4 -0.40073,4.87e-4 -0.06518,0.0075 -0.134086,-0.0099 -0.198974,-3.4e-4 -0.06188,0.0092 -0.125011,0.03397 -0.187673,0.04475 -0.124612,0.06225 -0.263641,0.07577 -0.400532,0.08465 -0.02292,8.65e-4 -0.04617,-0.0013 -0.06877,0.0026 -0.04264,0.0074 -0.08257,0.02649 -0.124968,0.03518 -0.06742,0.01383 -0.135418,0.01981 -0.203875,0.02534 -0.06703,-0.003 -0.137402,0.01526 -0.204305,0.0067 -0.06118,-0.0079 -0.124513,-0.03383 -0.185369,-0.04656 -0.138448,-0.02441 -0.268151,-0.105058 -0.383563,-0.183636 -0.148953,-0.07313 -0.266403,-0.191981 -0.399979,-0.287247 -0.17183,-0.115542 -0.270212,-0.217959 -0.301462,-0.427813 0.0041,-0.168305 0.08085,-0.316392 0.19039,-0.440291 0.09786,-0.123786 0.211671,-0.229078 0.332356,-0.329765 0.109133,-0.08452 0.205097,-0.183947 0.264015,-0.309452 0.04245,-0.137391 0.08526,-0.274618 0.142573,-0.406646 0.05745,-0.121035 0.08135,-0.25322 0.116407,-0.381613 0.04035,-0.1228 0.02479,-0.242405 -0.01604,-0.362683 -0.04115,-0.110537 -0.120413,-0.202824 -0.193202,-0.294443 -0.08622,-0.08059 -0.160912,-0.173562 -0.2412,-0.260345 -0.102649,-0.128785 -0.206164,-0.256523 -0.303491,-0.389376 -0.09021,-0.14796 -0.195357,-0.285484 -0.288556,-0.431444 -0.07902,-0.0936 -0.171225,-0.316614 -0.298869,-0.350464 -0.01608,-0.0043 -0.03321,0.002 -0.04982,0.0031 -0.06769,0.0013 -0.102395,0.04907 -0.153662,0.0834 -0.01944,0.01302 -0.04185,0.02108 -0.06171,0.03343 -0.02077,0.01292 -0.08124,0.05441 -0.06,0.04228 0.61517,-0.351363 1.228032,-0.706751 1.842047,-1.060127 -0.144539,0.07982 -0.265869,0.190861 -0.376164,0.31213 -0.08789,0.09301 -0.112744,0.216329 -0.15623,0.332027 -0.03123,0.116962 -0.06951,0.232227 -0.09395,0.351028 -0.02404,0.134705 -0.05848,0.266607 -0.07855,0.402171 -0.02996,0.122658 -0.05732,0.245473 -0.06816,0.371439 0.0096,0.147663 0.05623,0.289581 0.08392,0.434537 0.02568,0.142063 0.03205,0.286395 0.03558,0.430394 0.0022,0.133241 0.0015,0.266508 0.0012,0.399761 0.009,0.143363 -0.01093,0.283252 -0.0357,0.42382 -0.03055,0.139185 -0.08486,0.269101 -0.148883,0.395482 -0.06554,0.143613 -0.185466,0.240776 -0.29735,0.346472 -0.06281,0.04839 -0.121469,0.101366 -0.19034,0.141365 -0.657009,0.381567 -1.315396,0.760756 -1.972951,1.141381 -0.02197,0.01272 -0.08762,0.05135 -0.06563,0.03865 0.613327,-0.354086 1.226435,-0.708552 1.839652,-1.062828 -0.75562,0.45859 -1.480828,1.001914 -2.313663,1.300281 -0.140254,0.03337 -0.263437,0.108698 -0.40265,0.145984 -0.06047,0.04136 -0.133942,0.0469 -0.200849,0.06981 -0.06842,0.02342 -0.128419,0.05037 -0.199863,0.06687 -0.126292,0.07724 -0.254367,0.125204 -0.401096,0.146664 -0.138189,0.0027 -0.266465,0.04871 -0.403496,0.06488 -0.135468,0.01243 -0.271662,0.01198 -0.407568,0.01213 -0.08756,-0.009 -0.179126,0.0112 -0.266306,-6.67e-4 -0.0486,-0.0066 -0.09523,-0.02358 -0.143143,-0.0341 -0.137504,-0.0097 -0.266395,-0.05171 -0.40073,-0.07794 -0.113558,-0.02074 -0.216995,-0.07164 -0.333345,-0.08522 -0.01495,-6.67e-4 -0.03029,0.0015 -0.04484,-0.002 -0.05217,-0.02033 -0.05908,-0.02519 -0.112555,-0.03783 -0.06312,-0.01493 -0.118342,-0.02007 -0.180089,-0.04239 -0.132617,-0.03847 -0.268513,-0.0714 -0.396424,-0.124008 -0.127585,-0.0663 -0.259865,-0.12963 -0.398594,-0.169 -0.132303,-0.05661 -0.271287,-0.09033 -0.401363,-0.152797 -0.0986,-0.03968 -0.203572,-0.07709 -0.308862,-0.05022 l 1.810857,-1.307044 v 0 c 0.121692,0.02862 0.240592,0.0649 0.354047,0.118332 0.131795,0.04642 0.263772,0.09181 0.394373,0.14152 0.133242,0.05496 0.263562,0.117193 0.398164,0.168307 0.129863,0.03583 0.257241,0.07961 0.388763,0.109648 0.113144,0.01804 0.222525,0.05322 0.335485,0.07046 0.108782,0.03309 0.215275,0.07241 0.32832,0.0886 0.130428,0.03087 0.262785,0.04571 0.394765,0.06906 0.127763,0.01393 0.257567,-0.0011 0.386046,0.0016 0.129974,-0.0043 0.260323,-0.01118 0.387928,-0.0382 0.130865,-0.028 0.262814,-0.0458 0.391999,-0.07944 0.132728,-0.04955 0.254029,-0.126517 0.394394,-0.154921 0.131019,-0.04994 0.263464,-0.09486 0.394766,-0.143868 0.129569,-0.05686 0.26315,-0.101954 0.393118,-0.157181 0.04321,-0.02144 0.08813,-0.03938 0.130932,-0.06162 0.02098,-0.0109 0.08128,-0.04836 0.06081,-0.03653 -3.154084,1.822323 -2.365902,1.360557 -1.707756,0.987536 0.657567,-0.382117 1.314857,-0.764715 1.972703,-1.146353 0.808897,-0.469267 -2.547536,1.507309 -1.639422,0.954714 0.02247,-0.01367 0.04281,-0.03057 0.06422,-0.04586 0.06625,-0.04174 0.119203,-0.0913 0.179732,-0.140526 0.03382,-0.02751 0.07255,-0.04903 0.104301,-0.0789 0.01564,-0.01472 0.0275,-0.033 0.04126,-0.0495 0.07471,-0.104747 0.140236,-0.215398 0.175922,-0.339928 0.04622,-0.116984 0.06431,-0.245918 0.06082,-0.371158 2.68e-4,-0.132175 8.18e-4,-0.26435 7.24e-4,-0.396525 -6.55e-4,-0.133915 -0.0012,-0.268234 -0.01751,-0.401364 -0.02254,-0.155219 -0.06869,-0.30392 -0.09893,-0.457163 -0.01864,-0.142805 0.0054,-0.285994 0.0421,-0.424772 0.04012,-0.12605 0.03114,-0.264473 0.08433,-0.388172 0.01404,-0.131158 0.04532,-0.251772 0.07857,-0.37782 0.01429,-0.06121 0.04102,-0.112292 0.05933,-0.170965 0.02414,-0.07736 0.02586,-0.162491 0.07188,-0.233149 0.08969,-0.151166 0.207383,-0.278625 0.344031,-0.389199 0.658296,-0.381534 1.31455,-0.766614 1.974888,-1.144604 0.06313,-0.03614 0.153645,-0.0586 0.22591,-0.05331 0.06927,0.0051 0.09868,0.02153 0.162695,0.04576 0.180146,0.117026 0.297267,0.292113 0.413785,0.469631 0.0966,0.139492 0.20225,0.272703 0.288742,0.419066 0.09241,0.125305 0.190547,0.245997 0.291171,0.364809 0.08756,0.09092 0.174645,0.182429 0.25719,0.27796 0.08286,0.112741 0.177501,0.221132 0.223295,0.355461 0.05705,0.150423 0.104512,0.315536 0.07718,0.477073 -0.02864,0.139682 -0.06975,0.275944 -0.102126,0.414713 -0.05143,0.128826 -0.115455,0.251955 -0.150332,0.387124 -0.03276,0.165401 -0.09772,0.304388 -0.217687,0.425855 -0.114366,0.100825 -0.243516,0.183172 -0.341691,0.300729 -0.08697,0.09775 -0.202944,0.174312 -0.249277,0.303524 -0.07896,0.101587 0.129417,0.182645 0.187605,0.239858 0.124265,0.09798 0.249998,0.193034 0.39028,0.267549 0.109442,0.05771 0.219381,0.102933 0.34377,0.113806 0.115645,0.01974 0.230145,0.0013 0.345781,-0.01524 0.132518,-0.02357 0.263156,-0.05519 0.397879,-0.06278 0.133236,-0.0256 0.260306,-0.07516 0.394967,-0.09187 0.13594,-0.02212 0.271428,-0.01501 0.408839,-0.01488 0.131525,-4.25e-4 0.263167,-6.85e-4 0.394483,-0.009 0.130971,-0.01018 0.260504,-0.02933 0.389641,-0.05338 0.137927,-0.0138 0.277456,0.0011 0.416024,-0.0039 0.149297,4.04e-4 0.298594,0.0012 0.447891,9.28e-4 0.13543,-8.85e-4 0.27087,8.97e-4 0.406293,-0.0013 0.140358,-0.0035 0.281186,-0.01007 0.41892,-0.03964 0.169225,-0.03885 0.33119,-0.09944 0.497026,-0.150048 0.153571,-0.04633 0.302886,-0.10552 0.456798,-0.150242 0.131072,-0.05106 0.263287,-0.09709 0.388637,-0.161736 0.669614,-0.408253 -0.03369,0.02116 -1.780551,1.029951 -0.02261,0.01306 0.04354,-0.02891 0.0662,-0.04187 0.195557,-0.111881 -0.05901,0.04629 0.135134,-0.08243 0.02224,-0.01475 0.04542,-0.02804 0.06813,-0.04206 0.121024,-0.101914 0.253852,-0.18247 0.383063,-0.272816 0.131011,-0.07353 0.248938,-0.172698 0.354326,-0.279145 0.124091,-0.124073 0.248377,-0.247979 0.369983,-0.374499 0.04666,-0.04919 0.09431,-0.09789 0.137781,-0.149984 0.02422,-0.02902 0.04161,-0.06335 0.06621,-0.09204 0.01159,-0.01352 0.02668,-0.02361 0.04002,-0.03542 0.0104,-0.01857 0.0208,-0.03713 0.0312,-0.0557 0.01286,-0.01576 0.02821,-0.02978 0.03858,-0.04728 0.04544,-0.07667 0.07043,-0.16568 0.121311,-0.239653 0.04956,-0.119141 0.120411,-0.226828 0.139176,-0.357732 0.051,-0.128028 0.109283,-0.252386 0.18045,-0.370165 0.03094,-0.113312 0.06292,-0.227325 0.04519,-0.346565 -3e-6,-0.194624 0.07488,-0.3773 0.15694,-0.551328 0.05297,-0.144059 0.152285,-0.276837 0.158387,-0.433116 0.01014,-0.135231 0.02136,-0.270814 0.07776,-0.395964 0.01855,-0.127879 0.0602,-0.248178 0.07327,-0.376483 0.02418,-0.109314 0.07394,-0.208816 0.09066,-0.320797 0.01375,-0.03312 0.03542,-0.06287 0.04671,-0.0969 0.02443,-0.07367 0.0341,-0.162073 0.0335,-0.238517 -0.01015,-0.118316 -0.02907,-0.233577 -0.107778,-0.327869 -0.08708,-0.09881 -0.137376,-0.132157 -0.275189,-0.117039 -0.131357,-0.0014 -0.263404,-0.0024 -0.393421,-0.02334 -0.114184,-0.02283 -0.219488,-0.06582 -0.328737,-0.103897 -0.118241,-0.04618 -0.232848,-0.100966 -0.350758,-0.148077 -0.108061,-0.04049 -0.214299,-0.08388 -0.312768,-0.144806 -0.111383,-0.04706 -0.226559,-0.09098 -0.347046,-0.10691 -0.129605,-0.01403 -0.261227,0.0016 -0.391561,-0.0046 -0.146099,-3.23e-4 -0.292225,-0.0011 -0.438298,0.0023 -0.138573,0.0048 -0.277162,0.01401 -0.413938,0.03791 -0.150288,0.02433 -0.299012,0.03492 -0.451345,0.02153 -0.145198,-0.0067 -0.290127,-0.01941 -0.430733,-0.05882 -0.129171,-0.03329 -0.260355,-0.05473 -0.392634,-0.07218 -0.13781,3.1e-4 -0.27611,-0.01525 -0.407432,-0.05883 -0.139281,-0.05309 -0.274731,-0.121086 -0.38491,-0.22328 -0.09326,-0.09037 -0.172837,-0.191483 -0.210171,-0.318276 -0.04528,-0.137198 -0.06776,-0.283589 -0.05533,-0.427966 0.0088,-0.13206 0.02203,-0.264369 0.05802,-0.392247 0.0021,-0.144841 0.0052,-0.291017 0.04099,-0.432273 0.04597,-0.151106 0.116448,-0.299056 0.214628,-0.423131 0.09293,-0.130875 0.191299,-0.256514 0.283694,-0.387941 0.117368,-0.124588 0.241433,-0.236812 0.366925,-0.352868 0.126233,-0.11927 0.254468,-0.237267 0.398521,-0.33509 0.122219,-0.117827 0.244652,-0.237305 0.385771,-0.332704 0.06694,-0.04062 0.120724,-0.0907 0.183814,-0.136527 0.240209,-0.174464 -0.119975,0.09065 0.118256,-0.07207 0.01977,-0.0135 0.03686,-0.03056 0.05529,-0.04585 0.165906,-0.126438 -0.05763,0.04904 0.113339,-0.103824 0.0841,-0.07519 0.190367,-0.124912 0.265536,-0.211626 0.130684,-0.105572 0.269578,-0.199028 0.395825,-0.31035 0.141078,-0.09708 0.286496,-0.19114 0.406746,-0.314474 0.132677,-0.132472 0.265443,-0.264855 0.398207,-0.397241 0.128729,-0.128613 0.2579,-0.256875 0.382165,-0.389844 0.111395,-0.122316 0.210089,-0.252882 0.309169,-0.384592 0.08818,-0.11123 0.154703,-0.23326 0.193371,-0.370428 0.02675,-0.06585 0.03777,-0.133607 0.06282,-0.199981 0.03777,-0.100098 0.01396,-0.02722 0.06015,-0.115526 0.0097,-0.01855 0.01673,-0.03838 0.02509,-0.05757 0.06775,-0.104017 0.0953,-0.216799 0.12649,-0.335879 0.01291,-0.13024 0.04575,-0.257115 0.05457,-0.386385 5.16e-4,-0.132532 0.0015,-0.26506 0.0024,-0.397589 1.82e-4,-0.113225 0.0037,-0.228048 -0.01801,-0.339678 -0.0298,-0.08754 -0.107702,-0.131553 -0.19895,-0.140451 -0.142107,0.01395 -0.282388,0.05442 -0.426424,0.04457 -0.134086,0.0021 -0.268397,0.0022 -0.402084,0.01413 -0.131904,0.01355 -0.261615,0.03997 -0.393292,0.05464 -0.138351,-0.0037 -0.277213,0.0015 -0.414165,0.02281 -0.172749,0.03132 -0.339758,0.08302 -0.503949,0.145076 -0.161033,0.03449 -0.322308,0.03294 -0.486462,0.02949 -0.160258,-9.62e-4 -0.320532,-0.003 -0.480665,-0.0099 -0.197424,-0.0091 -0.394312,-0.0242 -0.590384,-0.04959 -0.209395,-0.01841 -0.420248,-0.0067 -0.630069,-0.01979 -0.232517,-0.01121 -0.468998,-0.02049 -0.692092,-0.09326 -0.139557,-0.04679 -0.282981,-0.07311 -0.426373,-0.105234 -0.170979,-0.03993 -0.346374,-0.06544 -0.506985,-0.141095 -0.127955,-0.04739 -0.255269,-0.09481 -0.392333,-0.108014 -0.123256,-0.01513 -0.249204,-0.0018 -0.372428,-0.0236 -0.129709,-0.01869 -0.258836,-0.05171 -0.390667,-0.04614 -0.158087,-0.0025 -0.316385,-0.0092 -0.471519,-0.04285 -0.236034,-0.05147 -0.464435,-0.128371 -0.696005,-0.196329 -0.254441,-0.0555 -0.514771,-0.06681 -0.769176,-0.122735 -0.176739,-0.04971 -0.348449,-0.116477 -0.514676,-0.194563 -0.130588,-0.05851 -0.255922,-0.139703 -0.400165,-0.15802 -0.120367,-0.02343 -0.241784,-0.01136 -0.363338,-0.02867 -0.149571,-0.02429 -0.291098,-0.06767 -0.396159,-0.184051 -0.05655,-0.07438 -0.141445,-0.185638 -0.117837,-0.287802 0.008,-0.03475 0.05546,-0.0522 0.06047,-0.08826 0.0788,-0.115828 0.179314,-0.217633 0.240247,-0.345902 0.03656,-0.117783 0.08327,-0.239683 0.06671,-0.364897 -0.02319,-0.130485 -0.081,-0.231574 -0.166526,-0.333394 -0.118982,-0.134455 -0.251837,-0.255918 -0.373416,-0.388054 -0.103507,-0.110268 -0.20335,-0.223812 -0.306529,-0.334346 -0.100683,-0.09914 -0.199828,-0.197065 -0.343734,-0.227708 -0.143648,-0.03063 -0.286274,-0.06253 -0.43279,-0.07737 -0.160941,-0.01934 -0.325118,-0.01533 -0.483098,-0.05839 -0.203683,-0.05156 -0.397863,-0.128032 -0.585716,-0.222323 -0.131753,-0.05797 -0.26568,-0.105416 -0.410054,-0.119122 -0.128226,-0.01389 -0.258419,0.0016 -0.387374,-0.0045 -0.132265,-3.41e-4 -0.264546,-0.0012 -0.396801,9.68e-4 -0.12925,0.0034 -0.259459,0.0083 -0.38546,0.04013 -0.132622,0.03729 -0.259038,0.09295 -0.394019,0.12225 -0.151698,0.03417 -0.302971,0.02132 -0.456123,0.0013 -0.140256,-0.01316 -0.269063,-0.01568 -0.400459,0.04442 -0.120175,0.04656 -0.241854,0.08981 -0.365042,0.126693 -0.119327,0.04476 -0.246212,0.05923 -0.364343,0.10945 -0.136825,0.03434 -0.261901,0.102618 -0.401719,0.127497 -0.138716,0.01793 -0.274959,0.03534 -0.415446,0.02509 -0.132557,5.05e-4 -0.265112,0.0015 -0.397669,0.0019 -0.136042,-4.45e-4 -0.273118,-2.74e-4 -0.407245,-0.02614 -0.159685,-0.03825 -0.304298,-0.106603 -0.428359,-0.216418 -0.142664,-0.116533 -0.278101,-0.240857 -0.418978,-0.359449 -0.158188,-0.122793 -0.328006,-0.227917 -0.48951,-0.345998 -0.147284,-0.122885 -0.28038,-0.261492 -0.384645,-0.423468 -0.0754,-0.130414 -0.119393,-0.264101 -0.136717,-0.41414 0.0079,-0.109459 0.02893,-0.219028 0.07697,-0.318547 0.01755,-0.141545 0.05576,-0.274574 0.09938,-0.409348 l 0.0198,-0.06554 c 0.0079,-0.01925 0.01752,-0.03786 0.02363,-0.05774 0.02583,-0.08405 0.03476,-0.173359 0.09973,-0.24009 0.09848,-0.154849 -0.03645,0.04713 0.07363,-0.08696 0.01417,-0.01726 0.02147,-0.03938 0.03526,-0.05694 0.04156,-0.05293 0.101104,-0.06718 0.144902,-0.117061 0.08206,-0.08328 0.101528,-0.197789 0.113854,-0.310483 0.02157,-0.107176 0.04435,-0.140531 -0.03554,-0.238018 -0.107323,-0.117266 -0.223673,-0.224463 -0.349141,-0.322245 -0.144965,-0.123982 -0.276732,-0.26181 -0.408054,-0.399985 -0.158079,-0.170425 -0.310294,-0.346603 -0.441516,-0.538942 -0.127346,-0.187389 -0.241201,-0.383088 -0.371006,-0.568775 -0.09479,-0.112655 -0.211917,-0.199091 -0.325459,-0.291916 -0.11802,-0.09295 -0.255017,-0.156615 -0.380866,-0.238152 -0.130459,-0.07506 -0.264686,-0.162544 -0.416005,-0.08958 -1.094836,0.619329 2.454109,-1.4145821 1.511057,-0.884739 -0.07711,0.03344 -0.113231,0.07212 -0.175299,0.126933 -0.06602,0.0583 -0.138329,0.109264 -0.192998,0.180381 -0.115852,0.124066 -0.229839,0.250742 -0.320065,0.395291 -0.110178,0.125676 -0.204186,0.263782 -0.323801,0.38081 -0.07988,0.08679 -0.155,0.169097 -0.192625,0.282875 -0.01343,0.09231 -0.0299,0.182437 -0.08194,0.262151 -0.01257,0.01926 -0.03029,0.03489 -0.04228,0.05452 -0.01466,0.024 -0.02485,0.05046 -0.03727,0.07569 -0.09083,0.135764 -0.204483,0.263195 -0.324869,0.372552 -0.619343,0.355232 -1.488588,0.987427 -2.301468,1.263391 -0.05572,0.02309 -0.110706,0.03872 -0.162307,0.07038 -0.01676,0.01028 -0.06667,0.04168 -0.04963,0.03187 1.950106,-1.122803 2.475776,-1.401847 1.781207,-1.031813 -0.766942,0.44455 -1.543036,0.941814 -2.350674,1.337737 -0.168246,0.07498 -0.339821,0.114052 -0.524206,0.08102 -0.134149,-0.0171 -0.266107,-0.04983 -0.401079,-0.05805 -0.162229,-0.02026 -0.320811,-0.05811 -0.467009,-0.13402 -0.152448,-0.07912 -0.299145,-0.16829 -0.444899,-0.259036 -0.09055,-0.06154 -0.166166,-0.149335 -0.277348,-0.168968 -0.134851,-0.06335 -0.261257,-0.141978 -0.370104,-0.244775 -0.137332,-0.128366 -0.267957,-0.263885 -0.395079,-0.402338 -0.118791,-0.135812 -0.232661,-0.277188 -0.3087,-0.442313 -0.07093,-0.152123 -0.147423,-0.302402 -0.236673,-0.444648 -0.06234,-0.117251 -0.100682,-0.2464 -0.174491,-0.356767 -0.09856,-0.09411 -0.195168,-0.118954 -0.328138,-0.07752 -0.179798,0.04191 -0.352122,0.107227 -0.532185,0.147993 -0.139173,0.04876 -0.269201,0.12049 -0.408795,0.168805 -0.128226,0.06531 -0.257784,0.126858 -0.389514,0.184682 -0.122663,0.04621 -0.238218,0.105251 -0.357656,0.157892 -0.120294,0.05183 -0.24946,0.08417 -0.36699,0.143999 -0.713083,0.32742 0.04244,-0.01724 1.797436,-1.044877 0.912898,0.122574 0.304321,0.129585 -0.238382,0.184916 -0.118805,0.11828 -0.240512,0.235246 -0.341824,0.369308 -0.09496,0.150545 -0.07992,0.267776 -0.07671,0.440751 10e-4,0.135746 0.0039,0.272235 -0.0142,0.407106 -0.02111,0.120264 -0.06435,0.235816 -0.05072,0.359685 0.001,0.126401 0.0016,0.253443 0.02109,0.378649 0.02516,0.132629 0.07202,0.258691 0.103684,0.389681 0.04555,0.139487 0.08931,0.278453 0.08089,0.427418 0.0053,0.131849 0.01196,0.263799 0.02766,0.394888 -1.718207,1.067696 -1.331874,1.511768 -2.28366,1.023889 -0.168007,-0.08223 -0.337728,-0.16056 -0.520034,-0.206258 C 9.9952818,15.642685 9.850287,15.550177 9.7173154,15.43865 9.5782305,15.319933 9.4392581,15.199291 9.3171266,15.062898 9.1997664,14.919118 9.0941202,14.766306 8.9727513,14.625942 8.8723081,14.523051 8.7583006,14.419424 8.614372,14.38681 8.4822503,14.380722 8.3494886,14.400975 8.2178873,14.411302 8.0527496,14.43054 7.8868852,14.457954 7.721238,14.425978 7.5857195,14.401414 7.4626777,14.354083 7.34398,14.283841 7.2329981,14.221641 7.1285509,14.15117 7.027082,14.074783 6.9171221,14.016587 6.8148607,13.9505 6.7322355,13.855399 6.6444022,13.745465 6.5736705,13.623215 6.4812391,13.517404 6.3743472,13.414602 6.2647237,13.315163 6.1395489,13.234589 6.0257064,13.150406 5.9158956,13.044427 5.7709892,13.021845 c -0.1327167,-0.0047 -0.2066347,0.0087 -0.325913,0.07239 -0.1616812,0.06431 -0.327288,0.119205 -0.4856982,0.192757 -0.1603254,0.06177 -0.3192125,0.127582 -0.4820224,0.182549 -0.1018109,0.04909 -0.020691,0.009 -0.1234405,0.06269 -0.021829,0.01141 -0.087033,0.04614 -0.065745,0.03374 3.175394,-1.848469 2.9101257,-1.319472 2.2678863,-0.91974 -0.6492964,0.608612 -2.01024,1.061358 -2.8822753,1.248411 -0.054063,0.02078 -0.066544,0.02302 -0.1169464,0.0528 -0.019466,0.0115 -0.076094,0.04882 -0.056547,0.03746 3.5347374,-2.054453 3.0094621,-1.569413 2.4364502,-1.119802 -0.037626,0.02881 -0.7972393,0.185123 -0.8338199,0.215253 -0.011802,0.0097 -0.087822,0.0912 -0.1025065,0.09978 -0.6745875,0.393819 -1.3553981,0.776885 -2.0318788,1.167442 -0.6981719,0.35621 -0.1094813,0.05726 1.7851908,-1.034832 0.020163,-0.01162 -0.03914,0.02532 -0.059806,0.03603 -0.060615,0.03139 -0.1206602,0.06112 -0.178914,0.09752 -0.061298,0.0509 -0.1085665,0.123244 -0.1778072,0.163691 -0.7486387,0.437313 -1.3883926,0.839254 -2.1142561,1.210084 -0.6709665,0.315949 -1.68873721,0.969402 1.7090219,-1.009426 0.020821,-0.01212 -0.040576,0.026 -0.060696,0.03925 -0.022587,0.01488 -0.046201,0.02838 -0.067418,0.04516 -0.022094,0.01747 -0.041417,0.03819 -0.062125,0.05728 -0.1051069,0.0943 -0.2297109,0.173553 -0.2942286,0.30279 -0.013483,0.03641 -0.033375,0.07032 -0.045709,0.107139 -0.026462,0.07899 0.00937,0.165485 0.016648,0.244655 0.025346,0.129526 0.033709,0.257995 0.048417,0.388976 0.032426,0.140188 0.1025594,0.261197 0.1643748,0.389957 0.048987,0.137016 0.1002908,0.272794 0.1609329,0.405155 0.074039,0.148036 0.1424782,0.301731 0.2446506,0.432731 0.089553,0.12984 0.1721549,0.264316 0.2586736,0.396186 0.09835,0.135839 0.2048274,0.266578 0.2856191,0.41414 0.074204,0.132041 0.161125,0.255982 0.2599444,0.3709 0.1097014,0.126533 0.2249651,0.246258 0.358785,0.348049 0.1410766,0.117784 0.2745353,0.243248 0.3952906,0.382178 0.1142729,0.129338 0.2242963,0.263123 0.3073701,0.415284 0.08049,0.138341 0.1784626,0.2653 0.2951736,0.375304 0.1302219,0.131679 0.2603641,0.263591 0.3835429,0.401956 0.1163769,0.132962 0.223961,0.273499 0.3460052,0.401365 0.1454399,0.158674 0.2847683,0.322834 0.409597,0.498443 0.1422398,0.193277 0.3719634,0.28965 0.5559417,0.445815 0.182767,0.149087 0.2880677,0.388594 0.4469506,0.564072 0.1617819,0.184558 0.3701205,0.342292 0.5343025,0.524634 0.1565378,0.168273 0.3953592,0.330323 0.560308,0.490406 0.1352718,0.116868 0.1531114,0.255426 0.2765218,0.385312 0.1326406,0.132615 0.2652878,0.265224 0.3980101,0.397757 0.132956,0.132758 0.266025,0.265403 0.398706,0.398435 0.130558,0.131383 0.261372,0.26268 0.385175,0.400518 0.101578,0.11612 0.246888,0.203536 0.334619,0.330528 0.105257,0.122788 0.204779,0.18928 0.316508,0.306167 0.124215,0.13064 0.279398,0.333857 0.392582,0.474291 0.114633,0.137701 0.242444,0.262592 0.364616,0.39353 0.117434,0.129019 0.150484,0.28345 0.263821,0.416027 0.128428,0.133439 0.259355,0.268373 0.347195,0.433243 0.06681,0.150763 0.08629,0.291001 0.04319,0.452401 -0.0086,0.03859 -0.0233,0.07589 -0.02924,0.114992 -0.01281,0.08447 3.2e-4,0.173468 -0.02334,0.257025 -0.01407,0.05904 -0.04109,0.10936 -0.05807,0.166119 -0.02198,0.07346 -0.02044,0.155084 -0.0592,0.224185 -0.06751,0.13976 -0.161161,0.26393 -0.224674,0.405651 -0.02891,0.04744 -0.0534,0.09752 -0.08317,0.144427 -0.06174,0.09727 -0.09516,0.256487 -0.165505,0.34696 -0.101116,0.125988 -0.234293,0.179173 -0.323595,0.31325 -0.105779,0.123992 -0.203015,0.254026 -0.338283,0.348839 0.12919,0.144874 -0.06544,0.194766 -0.121584,0.27687 -0.482749,0.70596 0.694288,-0.468108 -2.072575,1.148439 -0.1204291,0.03944 -0.237242,0.09025 -0.3582637,0.127725 -0.059762,0.02237 -0.1197239,0.03339 -0.1765124,0.06355 -0.020276,0.01077 -0.079087,0.04667 -0.05922,0.03517 1.8852381,-1.091856 1.6299921,-1.237176 1.7736481,-1.031028 -0.129026,0.09554 -0.237758,0.321584 -0.341426,0.447993 -0.102514,0.118307 -0.22903,0.08605 -0.2977912,0.226706 -0.06842,0.132648 -0.1609377,0.247802 -0.2389286,0.374363 -0.058352,0.06522 -0.00984,0.12587 -0.053693,0.198057 0.015086,0.08776 0.00879,0.141819 0.075824,0.188885 0.1097569,0.08237 0.2119647,0.174783 0.3259538,0.251765 0.147785,0.109645 0.331162,0.251047 0.488895,0.346225 0.163835,0.0964 0.31016,0.07255 0.460198,0.189647 0.307441,-0.156256 1.208251,-0.22529 1.354486,-0.234948 -0.620748,0.781 -1.807196,1.669323 -2.6773452,1.834775 0.042168,-0.02556 0.197373,-0.418449 0.2392369,-0.444499 0.08596,-0.05349 0.1433903,-0.139729 0.2104863,-0.213243 0.02772,-0.035 0.05084,-0.07391 0.08186,-0.106013 0.05381,-0.05568 0.130047,-0.197305 0.186277,-0.248075 0.411178,-0.511488 0.333439,-0.178042 0.390664,-0.225959 0.06724,-0.04167 -0.08186,-0.35217 -0.01437,-0.391715 0.654848,-0.383753 1.521471,-0.50276 2.172916,-0.892263 0.03918,-0.02343 -5.1759866,2.994605 0.120782,-0.06458 0.111004,-0.04243 0.220461,-0.08932 0.335533,-0.12029 0.118772,-0.04743 0.187803,-0.116068 0.302335,-0.176214 0.135837,-0.0463 0.262698,-0.140233 0.397885,-0.188768 0.129704,-0.06823 0.318675,-0.05912 0.447004,-0.129781 0.134986,-0.06774 0.263416,-0.147529 0.398528,-0.215169 0.135092,-0.05273 0.273277,-0.0954 0.412947,-0.13412 0.138986,-0.01678 0.276989,-0.01593 0.416975,-0.01259 0.134938,0.0018 0.270099,0.0046 0.40429,0.02024 0.138256,0.01738 0.275982,0.0095 0.415762,0.0051 0.147772,1.22e-4 0.295531,0.04023 0.443301,0.04053 0.14742,6.92e-4 0.294899,0.0018 0.442168,0.0091 0.14374,0.0086 0.310934,-0.05247 0.452473,-0.02558 0.139085,0.01472 0.247081,0.01985 0.386858,0.02622 0.1481,2.53e-4 0.296194,0.0159 0.444294,0.01631 0.163381,-8.02e-4 0.277543,0.0279 0.440119,0.0098 0.150476,-0.01962 0.222035,-0.06221 0.505833,-0.06367 0.169481,-0.02625 0.335363,-0.07677 0.505965,-0.0885 0.148573,0.01883 0.629332,0.0072 0.280708,0.291609 -0.0045,0.162291 -0.0054,0.324931 -0.02438,0.486428 -0.02159,0.179543 -0.05692,0.353499 -0.115729,0.524253 -0.04912,0.122891 -0.07021,0.256847 -0.09067,0.38695 -0.02587,0.117592 -0.06485,0.231853 -0.102391,0.345698 -0.06369,0.09827 -0.06826,0.229393 -0.114986,0.336664 -0.04498,0.132962 0.129676,0.35944 0.07889,0.489579 -0.02363,0.139841 0.02925,0.325228 -0.0023,0.463003 -0.04338,0.125876 -0.444722,0.082 -0.439992,0.218715 -0.01755,0.136819 0.29205,0.390263 0.25623,0.522081 -0.0083,0.03904 0.0047,-0.03965 0,0 -0.01026,0.0875 -0.3681,0.170432 -0.3764,0.258207 -9.04e-4,0.125121 -0.0033,0.250385 0.0029,0.375408 0.0079,0.09135 0.189125,-0.04066 0.277615,0.0064 0.121743,0.03157 0.07235,0.270377 0.190716,0.314349 0.143635,0.05775 0.402639,-0.07485 0.539848,-0.0044 0.121723,0.05857 0.375084,-0.153387 0.508032,-0.131483 0.12945,0.03069 0.207972,0.238882 0.332939,0.286882 0.11027,0.04225 0.188072,0.05576 0.306568,0.06324 0.141231,0.03053 0.101921,0.36385 0.236595,0.41507 0.135459,0.04723 0.274558,0.08567 0.404268,0.148167 0.133101,0.07144 0.258449,0.157457 0.39723,0.217903 0.132169,0.05938 0.275254,0.092 0.399709,0.169062 0.12429,0.06275 0.340216,-0.159373 0.46103,-0.0902 0.116052,0.06119 0.203718,0.192206 0.327264,0.23688 0.124842,0.04968 0.230158,0.275258 0.358932,0.313094 0.116633,0.01618 0.211718,-0.05894 0.32996,-0.05856 0.107264,0.01739 0.211468,-0.163877 0.317817,-0.142447 0.106214,-0.0029 0.335314,0.203447 0.435614,0.157847 0.125989,-0.01937 0.139287,0.03496 0.263376,-0.0024 0.13273,-0.02668 0.251508,0.06639 0.384678,0.04153 0.13586,-0.02405 0.269491,-0.0354 0.407695,-0.02663 0.132663,6.6e-5 0.187202,-0.171706 0.319864,-0.171291 0.132568,4.22e-4 0.140143,-0.02985 0.272708,-0.03116 0.127737,-0.0024 0.124185,-0.106062 0.248493,-0.138982 0.05926,-0.01932 0.448743,0.263807 0.502426,0.231667 0.01763,-0.01056 0.06975,-0.04349 0.05194,-0.03323 -3.876146,2.232479 -1.035451,0.60239 0.11259,-0.05505 0.113182,-0.03387 0.220829,-0.08287 0.332466,-0.121252 0.132152,-0.02492 0.262178,-0.06965 0.387266,-0.118162 0.131257,-0.05531 0.264078,-0.107031 0.39889,-0.15312 0.156361,-0.03826 0.310284,-0.08523 0.474092,-0.06971 0.220052,0.0019 0.44023,0.0053 0.660212,-0.0022 l -1.805498,1.311771 z"
       inkscape:connector-curvature="0"
       sodipodi:nodetypes="ccccccsccccccccccccccccccccccccccccccccccccccccccccccccccccccccccccccccccccccccccccccccccccccccccccccccccccccccccccccccccccccccccccccccccccccccccccccccccccccccccccccccccccccccccccccccccccccccccccccccccccccccccccccccccccscccccccccccccccccccccccccccccccccccccccccccccccccccccccccccccccccccccccccccccccccccccccccccccccccccccccccccccccccccccccccccccccccccccccccccccccccccccccccccccccccccccccccccccccccccccccccccccccccccccccccccccccccccscccccccccccccccccccccccccccccccccccccccccccccccccccccccccccccccccccccccccccccccccccccccccccccccccccccccccccccccccccccccccccccccccccccccccccccccccccccccccccccccccccccccccccccccccccccccccccccccccccccccccccccccccccccccccccccccccccccccccccccccccccccccccccccccccccccccccccccccccccccccccccccccccccccccccccccccccccccccccccccccccccccccccccccccccccccccccccccccccccccccccccccccccccccccccccccccc" />
    <path
       style="fill:#e6e6e6;stroke-width:0.0625"
       d="m 21.303098,11.674482 c -0.184919,0.358393 -0.326972,0.76876 -0.704223,0.987549 -1.001131,0.711417 -2.135841,1.202027 -3.234864,1.738892 -0.706827,-0.04012 -1.367806,-0.303465 -1.936035,-0.720582 -0.716206,-0.405008 -1.011327,-1.198664 -1.451171,-1.839477 -0.306187,-0.19078 -0.696701,0.06874 -0.997437,0.174683 -0.31739,0.355319 -0.156497,0.914352 -0.226196,1.353149 -0.06129,0.528885 0.353472,1.098446 0.07874,1.593506 -0.557588,0.320121 -0.978171,0.864668 -1.57373,1.109131 C 10.480909,15.913746 9.7175598,15.54855 9.2146466,14.913695 8.9395741,14.674369 8.7449601,14.218884 8.3131739,14.400583 7.4515653,14.616048 6.7922929,13.89486 6.2539148,13.337801 6.0911541,13.09442 5.7906482,13.056294 5.5700668,13.247358 c -0.6570496,0.366405 -1.4933557,0.402215 -2.0607909,0.916748 -0.2684782,0.574752 0.126079,1.209794 0.3583984,1.73645 0.4949108,1.035847 1.3439149,1.818551 2.0715331,2.682007 1.341304,1.742923 3.0423145,3.155918 4.5164726,4.779876 0.858359,0.932463 1.812443,1.809907 2.47425,2.899323 0.103497,0.645877 -0.221106,1.306839 -0.551514,1.8479 -0.260234,0.39524 -0.625399,0.714853 -0.835083,1.135498 -0.382211,0.374856 -0.999363,0.416184 -1.349853,0.84314 -0.2583883,0.185908 -0.4580064,0.530305 -0.4721683,0.84497 0.3433953,0.291505 0.7026433,0.69958 1.1698003,0.745972 1.18801,-0.307974 2.281305,-0.870002 3.388549,-1.38208 0.5328,-0.119028 0.975317,-0.564272 1.549632,-0.430091 1.578987,0.0502 3.163175,0.06259 4.738698,-0.02364 0.223781,0.08913 -0.111692,0.33292 -0.02136,0.500854 -0.04676,0.773552 -0.47501,1.473972 -0.404663,2.256958 0.04703,0.364602 0.02225,0.630246 -0.36792,0.694092 -0.118704,0.222511 0.444337,0.498311 0.06274,0.662842 -0.282722,0.04556 -0.349384,0.62864 0.0063,0.561523 0.187844,0.08272 0.207822,0.405469 0.488282,0.291015 0.355681,0.04793 0.816452,-0.278274 1.076293,0.08618 0.170196,0.142992 0.466809,0.08499 0.50879,0.369385 0.369298,0.361037 0.903247,0.533199 1.386108,0.69812 0.189441,-0.03818 0.403241,-0.145868 0.556763,0.06348 0.242548,0.23473 0.546039,0.53811 0.906372,0.32312 0.332838,-0.218156 0.706117,0.120752 1.070557,0.04749 0.595968,0.098 1.118593,-0.229878 1.686889,-0.320068 0.553839,-0.277511 1.004363,-0.759349 1.565307,-1.001465 1.204895,0.381529 2.486348,1.016381 3.76709,0.57959 0.622408,-0.140132 0.592293,-0.876108 0.554321,-1.373169 -0.166111,-0.824826 -0.08776,-1.76843 0.431885,-2.455688 0.721974,-0.50278 1.471322,-0.999224 2.279541,-1.346924 0.450528,0.0747 0.636979,0.609222 0.925018,0.912436 0.370854,0.487505 0.980537,0.979273 0.781525,1.673135 -0.07034,0.625053 -0.476241,1.104896 -0.914917,1.519287 -0.311724,0.229475 0.206986,0.396177 0.346924,0.533447 0.64509,0.453714 1.417549,-0.01419 2.124362,0.02595 0.958492,-0.112809 1.976213,0.06705 2.891141,-0.288401 0.793329,-0.516865 1.157312,-1.480384 1.322387,-2.374145 0.237155,-0.721841 0.4959,-1.470579 0.518555,-2.232666 -0.16676,-0.456974 -0.799005,-0.23882 -1.141968,-0.45581 -0.470046,-0.170213 -0.906209,-0.468627 -1.428375,-0.342862 -0.926962,0.02951 -1.921332,0.06995 -2.77768,-0.336948 -0.445525,-0.36131 -0.234062,-1.034879 -0.197265,-1.523438 0.214493,-0.842884 1.023782,-1.343347 1.63048,-1.89777 1.05056,-0.869215 2.281312,-1.655448 2.905653,-2.910579 0.22687,-0.542263 0.35774,-1.196697 0.169433,-1.76062 -0.882988,-0.109539 -1.7584,0.148678 -2.631324,0.22937 -1.244993,0.0074 -2.504351,-0.06444 -3.696939,-0.447741 -0.794915,-0.110936 -1.592782,-0.197136 -2.369613,-0.407483 -0.657268,-0.09247 -1.248682,-0.44264 -1.909301,-0.503907 -0.249874,-0.08126 -0.490352,-0.406105 -0.223999,-0.618775 0.296156,-0.330162 0.265902,-0.841269 -0.09867,-1.107868 -0.291029,-0.262053 -0.526417,-0.663681 -0.890811,-0.795265 -0.703537,-0.04475 -1.349744,-0.339742 -2.032492,-0.466861 -0.734035,-0.09172 -1.439652,0.187189 -2.167969,0.216308 -0.898451,0.193778 -1.902989,0.668802 -2.793701,0.193116 -0.464823,-0.427858 -1.102295,-0.698294 -1.41626,-1.268311 -0.189081,-0.528456 0.05458,-1.150029 0.368164,-1.584717 0.197595,-0.204723 0.332646,-0.548805 0.04211,-0.746582 -0.590696,-0.576606 -1.094524,-1.229083 -1.60144,-1.875244 -0.165962,-0.106302 -0.432886,-0.516231 -0.55127,-0.16333 z"
       id="path19"
       inkscape:connector-curvature="0" />
  </g>
</svg>
